<svg viewBox="0 0 16 16" xmlns="http://www.w3.org/2000/svg"><path fill="#aeb9c6" d="M2.02 5.217a.97.97 0 01.98.954v4.153a.97.97 0 01-.979.954h-.043A.968.968 0 011 10.324V6.17a.97.97 0 01.978-.954h.042zm1.448 6.71V5.37h9.064v6.557a.89.89 0 01-.899.875h-.962v2.243a.97.97 0 01-.979.955h-.041c-.538 0-.98-.428-.98-.955v-2.243H7.328v2.243a.97.97 0 01-.98.955h-.042a.97.97 0 01-.978-.955v-2.243h-.961a.89.89 0 01-.9-.875zm6.79-10.534c1.376.658 2.305 1.898 2.305 3.32 0 .088-.005.174-.013.26H3.451a2.876 2.876 0 01-.013-.26c0-1.422.928-2.662 2.306-3.32L4.98.245a.156.156 0 01.047-.219.165.165 0 01.226.046l.79 1.189A5.282 5.282 0 018 .89c.7 0 1.364.133 1.957.37l.791-1.189a.163.163 0 01.225-.046.156.156 0 01.047.219l-.763 1.148zM5.89 3.45c.242 0 .438-.19.438-.427a.43.43 0 00-.438-.425.431.431 0 00-.438.425c0 .237.196.427.438.427zm4.218 0a.43.43 0 00.438-.427.43.43 0 00-.438-.425.431.431 0 00-.438.425c0 .237.196.427.438.427zm3.912 1.767c.539 0 .979.43.979.954v4.153a.969.969 0 01-.978.954h-.042c-.538 0-.98-.428-.98-.954V6.17c0-.524.441-.954.98-.954h.04z" fill-rule="evenodd"/></svg>