<svg xmlns="http://www.w3.org/2000/svg" width="24" height="24"><path d="M9.293 6.293a1 1 0 011.414 1.414L7.414 11H19a1 1 0 01.993.883L20 12a1 1 0 01-1 1H7.414l3.293 3.293a1 1 0 01.083 1.32l-.083.094a1 1 0 01-1.414 0l-5-5-.073-.082-.007-.008-.017-.022c-.018-.024-.034-.049-.05-.074l-.021-.037c-.011-.02-.022-.04-.031-.06l-.023-.053-.021-.06-.014-.045-.016-.065-.009-.053A1.02 1.02 0 014 12l.004.09L4 12.02v-.04c0-.022.002-.046.004-.07l.007-.059.01-.052a.762.762 0 01.015-.065l.014-.046.021-.06.023-.051.03-.061.022-.037a.939.939 0 01.147-.186l-.08.09a.97.97 0 01.08-.09z" fill="#717E8F" fill-rule="evenodd"/></svg>