<svg width="24" height="24" xmlns="http://www.w3.org/2000/svg"><g fill-rule="nonzero"><path d="M20.604 12.12l-2.244.838c-.322.12-.693-.025-.823-.324l-3.491-7.99c-.13-.3.027-.643.35-.763l2.244-.838c.322-.121.693.024.824.323l3.49 7.99c.13.3-.027.643-.35.763M14.84 13.335l-1.505 1.505a.552.552 0 0 1-.778 0L5.16 7.443a.552.552 0 0 1 0-.778L6.665 5.16a.551.551 0 0 1 .777 0l7.398 7.397a.552.552 0 0 1 0 .778M12.957 18.36l-.838 2.244c-.12.323-.463.48-.762.35l-7.99-3.491c-.3-.13-.445-.501-.325-.824l.84-2.244c.12-.322.463-.48.76-.35l7.992 3.492c.299.13.444.5.323.824"></path></g></svg>