<svg viewBox="0 0 16 16" xmlns="http://www.w3.org/2000/svg"><path fill="#aeb9c6" d="M8 16A8 8 0 118 0a8 8 0 010 16zm2.2-13H5.744A2.748 2.748 0 003 5.744V10.2a2.747 2.747 0 002.744 2.745H10.2a2.748 2.748 0 002.745-2.745V5.744A2.748 2.748 0 0010.2 3zm1.863 7.2a1.864 1.864 0 01-1.863 1.862H5.744A1.864 1.864 0 013.882 10.2V5.744c0-1.026.836-1.862 1.862-1.862H10.2c1.027 0 1.863.836 1.863 1.862V10.2zm-4.09-4.79A2.565 2.565 0 005.41 7.973a2.565 2.565 0 002.562 2.562 2.565 2.565 0 002.563-2.562A2.565 2.565 0 007.972 5.41zm0 4.243a1.681 1.681 0 111.68-1.68c0 .926-.754 1.68-1.68 1.68zm2.67-4.991a.65.65 0 00-.648.647c0 .17.07.337.19.458.12.12.287.189.457.189a.652.652 0 00.647-.647.65.65 0 00-.647-.647z" fill-rule="evenodd"/></svg>