<svg viewBox="0 0 16 16" xmlns="http://www.w3.org/2000/svg"><path fill="#aeb9c6" d="M7.944 0C3.564 0 0 3.564 0 7.944s3.564 7.945 7.944 7.945 7.945-3.565 7.945-7.945C15.889 3.564 12.325 0 7.944 0zm3.544 6.126c.004.079.006.158.006.238 0 2.416-1.839 5.201-5.203 5.201a5.172 5.172 0 01-2.803-.82 3.67 3.67 0 002.707-.757 1.83 1.83 0 01-1.708-1.27 1.843 1.843 0 00.826-.032 1.829 1.829 0 01-1.467-1.793V6.87c.247.137.529.22.828.229a1.827 1.827 0 01-.566-2.441 5.192 5.192 0 003.77 1.91A1.829 1.829 0 0110.993 4.9a3.65 3.65 0 001.16-.443 1.837 1.837 0 01-.805 1.011c.37-.044.724-.142 1.05-.287a3.678 3.678 0 01-.91.945z" fill-rule="evenodd"/></svg>