<svg width="24" height="24" xmlns="http://www.w3.org/2000/svg"><g fill="none" fill-rule="evenodd"><path fill="#AEB9C6" d="M12 3a5 5 0 013.824 8.22C17.96 11.89 20 14.068 20 17.678v.775c0 1.082-.539 1.856-1.376 2.257-.461.221-.9.291-1.24.291H6.617c-.339 0-.778-.07-1.24-.29C4.539 20.307 4 19.533 4 18.451v-.775c0-3.61 2.04-5.788 4.176-6.456A5 5 0 0112 3zm0 2a3 3 0 100 6 3 3 0 000-6zm-2.423 8c-.332 0-1.205.287-1.891.8C6.626 14.594 6 15.827 6 17.677v.775c0 .274.067.37.24.453.142.069.309.095.375.095h10.77c.067 0 .233-.026.376-.095.172-.082.239-.179.239-.453v-.775c0-1.85-.626-3.083-1.686-3.877-.686-.513-1.559-.8-1.89-.8H9.576z" id="a"></path><g transform="translate(14)"><rect id="c" x="0" y="0" width="12" height="12" rx="6" fill="#000" filter="url(#b)"></rect><rect id="c" x="0" y="0" width="12" height="12" rx="6" fill-opacity="0" fill="#FFF"></rect><rect fill="#FFF" width="12" height="12" rx="6"></rect><rect x=".5" y=".5" width="11" height="11" rx="5.5"></rect></g><g transform="translate(16 2)"><rect id="e" x="0" y="0" width="8" height="8" rx="4" fill="#000" filter="url(#d)"></rect><rect id="e" x="0" y="0" width="8" height="8" rx="4" fill-opacity="0" fill="#FFF"></rect><rect fill="#F1F1F1" width="8" height="8" rx="4"></rect><rect fill="#F9423A" width="8" height="8" rx="4"></rect></g></g></svg>