<svg viewBox="0 0 16 16" xmlns="http://www.w3.org/2000/svg"><path fill="#aeb9c6" d="M6.526 9.728V6.002l3.582 1.87-3.582 1.856zM7.98 0a7.98 7.98 0 110 15.96A7.98 7.98 0 017.98 0zm5.436 10.643c.197-.853.197-1.785.197-2.663 0-.879.002-1.81-.194-2.664A1.423 1.423 0 0012.2 4.21c-1.396-.156-2.81-.157-4.218-.156-1.409-.001-2.823 0-4.22.156-.59.066-1.08.508-1.218 1.107-.196.853-.198 1.785-.198 2.664 0 .878 0 1.81.196 2.663.138.6.628 1.041 1.218 1.107 1.397.156 2.811.157 4.22.156 1.407.001 2.821 0 4.218-.156a1.424 1.424 0 001.218-1.107z" fill-rule="evenodd"/></svg>